<svg width="40" height="40" viewBox="0 0 40 40" fill="none" xmlns="http://www.w3.org/2000/svg">
<path fill-rule="evenodd" clip-rule="evenodd" d="M20 39.2C25.0921 39.2 29.9757 37.1772 33.5764 33.5765C37.1771 29.9758 39.2 25.0922 39.2 20C39.2 14.9078 37.1771 10.0243 33.5764 6.42355C29.9757 2.82285 25.0921 0.800003 20 0.800003C14.9078 0.800003 10.0242 2.82285 6.42354 6.42355C2.82284 10.0243 0.799988 14.9078 0.799988 20C0.799988 25.0922 2.82284 29.9758 6.42354 33.5765C10.0242 37.1772 14.9078 39.2 20 39.2ZM22.4 12.8C22.4 12.1635 22.1471 11.553 21.697 11.1029C21.247 10.6529 20.6365 10.4 20 10.4C19.3635 10.4 18.753 10.6529 18.3029 11.1029C17.8528 11.553 17.6 12.1635 17.6 12.8L17.6 21.4064L14.4968 18.3032C14.0441 17.866 13.4379 17.6241 12.8086 17.6296C12.1794 17.6351 11.5774 17.8875 11.1324 18.3324C10.6874 18.7774 10.435 19.3794 10.4296 20.0086C10.4241 20.6379 10.666 21.2442 11.1032 21.6968L18.3032 28.8968C18.7533 29.3467 19.3636 29.5995 20 29.5995C20.6364 29.5995 21.2467 29.3467 21.6968 28.8968L28.8968 21.6968C29.334 21.2442 29.5759 20.6379 29.5704 20.0086C29.5649 19.3794 29.3125 18.7774 28.8675 18.3324C28.4226 17.8875 27.8206 17.6351 27.1913 17.6296C26.5621 17.6241 25.9558 17.866 25.5032 18.3032L22.4 21.4064L22.4 12.8Z" fill="white"/>
</svg>
