<svg width="40" height="40" viewBox="0 0 40 40" fill="none" xmlns="http://www.w3.org/2000/svg">
<path fill-rule="evenodd" clip-rule="evenodd" d="M20 0.799994C14.9078 0.799993 10.0242 2.82284 6.42351 6.42354C2.82281 10.0242 0.799956 14.9078 0.799955 20C0.799955 25.0922 2.8228 29.9757 6.4235 33.5764C10.0242 37.1771 14.9078 39.2 20 39.2C25.0921 39.2 29.9757 37.1771 33.5764 33.5764C37.1771 29.9757 39.2 25.0922 39.2 20C39.2 14.9078 37.1771 10.0242 33.5764 6.42355C29.9757 2.82284 25.0921 0.799994 20 0.799994ZM17.6 27.2C17.6 27.8365 17.8528 28.447 18.3029 28.8971C18.753 29.3471 19.3634 29.6 20 29.6C20.6365 29.6 21.2469 29.3471 21.697 28.8971C22.1471 28.447 22.4 27.8365 22.4 27.2L22.4 18.5936L25.5032 21.6968C25.9558 22.134 26.562 22.3759 27.1913 22.3704C27.8206 22.3649 28.4225 22.1125 28.8675 21.6676C29.3125 21.2226 29.5649 20.6206 29.5704 19.9914C29.5758 19.3621 29.3339 18.7558 28.8968 18.3032L21.6968 11.1032C21.2467 10.6533 20.6363 10.4005 20 10.4005C19.3636 10.4005 18.7532 10.6533 18.3032 11.1032L11.1032 18.3032C10.666 18.7558 10.4241 19.3621 10.4295 19.9914C10.435 20.6206 10.6874 21.2226 11.1324 21.6676C11.5774 22.1125 12.1793 22.3649 12.8086 22.3704C13.4379 22.3759 14.0441 22.134 14.4968 21.6968L17.6 18.5936L17.6 27.2Z" fill="white"/>
</svg>
